<?xml version="1.0" encoding="UTF-8"?>
<!DOCTYPE svg PUBLIC "-//W3C//DTD SVG 1.1//EN" "http://www.w3.org/Graphics/SVG/1.1/DTD/svg11.dtd">
<svg xmlns="http://www.w3.org/2000/svg" version="1.1" width="445px" height="445px" style="shape-rendering:geometricPrecision; text-rendering:geometricPrecision; image-rendering:optimizeQuality; fill-rule:evenodd; clip-rule:evenodd" xmlns:xlink="http://www.w3.org/1999/xlink">
<g><path style="opacity:1" fill="#fefefe" d="M -0.5,-0.5 C 147.833,-0.5 296.167,-0.5 444.5,-0.5C 444.5,147.833 444.5,296.167 444.5,444.5C 296.167,444.5 147.833,444.5 -0.5,444.5C -0.5,296.167 -0.5,147.833 -0.5,-0.5 Z"/></g>
<g><path style="opacity:1" fill="#c5c6c8" d="M 89.5,188.5 C 86.3777,189.561 83.3777,190.895 80.5,192.5C 78.9505,193.441 77.2838,194.107 75.5,194.5C 81.8123,187.521 88.479,180.854 95.5,174.5C 96.6474,176.765 96.8141,179.098 96,181.5C 93.8169,183.907 91.6503,186.24 89.5,188.5 Z"/></g>
<g><path style="opacity:1" fill="#93a038" d="M 89.5,188.5 C 90.1667,189.833 91.1667,190.833 92.5,191.5C 93.165,198.004 96.165,203.17 101.5,207C 100.944,207.383 100.611,207.883 100.5,208.5C 96.8516,205.858 93.1849,203.191 89.5,200.5C 89.44,199.957 89.1067,199.624 88.5,199.5C 84.299,202.1 79.9656,204.434 75.5,206.5C 75.0618,206.565 74.7284,206.399 74.5,206C 75.2489,204.266 75.7489,202.433 76,200.5C 77.7774,197.941 79.2774,195.274 80.5,192.5C 83.3777,190.895 86.3777,189.561 89.5,188.5 Z"/></g>
<g><path style="opacity:1" fill="#343421" d="M 64.5,200.5 C 66.8333,203.5 69.5,206.167 72.5,208.5C 72.7678,210.099 72.4345,211.432 71.5,212.5C 68.8697,210.372 66.3697,208.039 64,205.5C 63.2204,203.613 63.3871,201.946 64.5,200.5 Z"/></g>
<g><path style="opacity:1" fill="#595c29" d="M 89.5,200.5 C 88.2329,203.061 88.2329,205.728 89.5,208.5C 86.2857,209.44 83.2857,210.94 80.5,213C 81.056,213.383 81.3893,213.883 81.5,214.5C 80.5386,216.265 80.2053,218.265 80.5,220.5C 80.1667,220.5 79.8333,220.5 79.5,220.5C 77.1395,217.473 74.4729,214.806 71.5,212.5C 72.4345,211.432 72.7678,210.099 72.5,208.5C 73.7095,208.068 74.7095,207.401 75.5,206.5C 79.9656,204.434 84.299,202.1 88.5,199.5C 89.1067,199.624 89.44,199.957 89.5,200.5 Z"/></g>
<g><path style="opacity:1" fill="#2d2d16" d="M 89.5,200.5 C 93.1849,203.191 96.8516,205.858 100.5,208.5C 101.81,210.148 103.143,211.814 104.5,213.5C 103.807,214.518 103.141,215.518 102.5,216.5C 97.7374,214.614 93.4041,211.948 89.5,208.5C 88.2329,205.728 88.2329,203.061 89.5,200.5 Z"/></g>
<g><path style="opacity:1" fill="#727c2b" d="M 80.5,192.5 C 79.2774,195.274 77.7774,197.941 76,200.5C 75.7489,202.433 75.2489,204.266 74.5,206C 74.7284,206.399 75.0618,206.565 75.5,206.5C 74.7095,207.401 73.7095,208.068 72.5,208.5C 69.5,206.167 66.8333,203.5 64.5,200.5C 67.9399,198.276 71.6066,196.276 75.5,194.5C 77.2838,194.107 78.9505,193.441 80.5,192.5 Z"/></g>
<g><path style="opacity:1" fill="#cecece" d="M 52.5,212.5 C 50.8333,211.167 49.1667,209.833 47.5,208.5C 49.8926,204.598 52.8926,201.098 56.5,198C 60.4658,195.036 64.1325,191.703 67.5,188C 68.1667,187.333 68.8333,187.333 69.5,188C 67.3333,190.833 64.8333,193.333 62,195.5C 60.6031,200.629 57.9365,204.963 54,208.5C 53.5899,209.901 53.0899,211.234 52.5,212.5 Z"/></g>
<g><path style="opacity:1" fill="#a3be65" d="M 284.5,207.5 C 282.901,207.232 281.568,207.566 280.5,208.5C 278.5,208.5 276.5,208.5 274.5,208.5C 271.167,207.167 267.833,207.167 264.5,208.5C 263.325,208.719 262.325,208.386 261.5,207.5C 269.323,206.18 276.99,206.18 284.5,207.5 Z"/></g>
<g><path style="opacity:1" fill="#b8c179" d="M 109.5,204.5 C 114.049,206.869 118.215,209.869 122,213.5C 122.765,215.066 122.598,216.399 121.5,217.5C 121.649,216.448 121.483,215.448 121,214.5C 119.961,215.71 118.794,216.71 117.5,217.5C 116.232,214.731 114.399,212.397 112,210.5C 110.878,208.593 110.045,206.593 109.5,204.5 Z"/></g>
<g><path style="opacity:1" fill="#8dae40" d="M 190.5,206.5 C 192.288,206.215 193.955,206.548 195.5,207.5C 199.627,217.048 203.46,226.714 207,236.5C 208.074,237.618 209.24,238.618 210.5,239.5C 205.833,240.833 201.167,240.833 196.5,239.5C 197.689,238.571 199.022,238.238 200.5,238.5C 199.858,227.853 194.691,224.853 185,229.5C 182.398,233.758 183.231,237.091 187.5,239.5C 183.833,240.833 180.167,240.833 176.5,239.5C 178.858,237.976 180.691,235.976 182,233.5C 184.442,226.175 187.275,219.008 190.5,212C 190.012,210.416 189.012,209.249 187.5,208.5C 188.602,207.824 189.602,207.158 190.5,206.5 Z"/></g>
<g><path style="opacity:1" fill="#8dae40" d="M 301.5,239.5 C 297.629,239.815 293.962,239.482 290.5,238.5C 292.451,237.718 293.951,236.384 295,234.5C 297.874,226.712 301.04,219.045 304.5,211.5C 302.985,210.409 302.152,209.076 302,207.5C 304.301,206.133 306.801,205.466 309.5,205.5C 312.831,215.991 316.665,226.324 321,236.5C 321.903,237.701 323.069,238.535 324.5,239C 318.717,239.868 315.05,239.702 313.5,238.5C 313.584,234.669 312.917,231.002 311.5,227.5C 307.233,227.203 303.066,227.536 299,228.5C 296.359,233.149 297.192,236.816 301.5,239.5 Z"/></g>
<g><path style="opacity:1" fill="#89ab3a" d="M 326.5,207.5 C 333.989,206.344 341.655,206.178 349.5,207C 356.463,209.33 358.296,213.83 355,220.5C 352.96,222.041 350.793,223.374 348.5,224.5C 352.306,229.806 356.64,234.64 361.5,239C 358.833,239.667 356.167,239.667 353.5,239C 349.5,234.333 345.5,229.667 341.5,225C 340.207,224.51 338.873,224.343 337.5,224.5C 337.334,228.514 337.501,232.514 338,236.5C 339.171,237.893 340.671,238.727 342.5,239C 337.167,239.667 331.833,239.667 326.5,239C 328.101,238.727 329.601,238.227 331,237.5C 331.832,227.816 331.665,218.149 330.5,208.5C 329.264,207.754 327.93,207.421 326.5,207.5 Z"/></g>
<g><path style="opacity:1" fill="#8aac3c" d="M 376.5,236.5 C 377.494,227.014 377.827,217.348 377.5,207.5C 375.585,207.216 373.919,207.549 372.5,208.5C 368.999,209.328 366.332,211.328 364.5,214.5C 363.551,211.874 363.551,209.208 364.5,206.5C 374.855,206.168 385.188,206.501 395.5,207.5C 396.544,209.768 396.711,212.101 396,214.5C 393.125,209.778 388.958,207.445 383.5,207.5C 383.334,217.506 383.5,227.506 384,237.5C 385.399,238.227 386.899,238.727 388.5,239C 382.833,239.667 377.167,239.667 371.5,239C 373.653,238.901 375.319,238.067 376.5,236.5 Z"/></g>
<g><path style="opacity:1" fill="#8cad3f" d="M 156.5,238.5 C 152.833,239.833 149.167,239.833 145.5,238.5C 146.75,238.423 147.583,237.756 148,236.5C 148.667,227.5 148.667,218.5 148,209.5C 146.175,208.897 144.341,208.23 142.5,207.5C 148.167,206.167 153.833,206.167 159.5,207.5C 157.955,208.452 156.288,208.785 154.5,208.5C 154.334,218.172 154.5,227.839 155,237.5C 155.383,238.056 155.883,238.389 156.5,238.5 Z"/></g>
<g><path style="opacity:1" fill="#8dae41" d="M 222.5,214.5 C 222.44,213.957 222.107,213.624 221.5,213.5C 220.182,220.322 220.182,226.989 221.5,233.5C 222.048,236.386 223.715,238.386 226.5,239.5C 222.5,240.833 218.5,240.833 214.5,239.5C 216.149,238.352 217.649,237.019 219,235.5C 219.667,226.833 219.667,218.167 219,209.5C 217.491,208.91 215.991,208.244 214.5,207.5C 218.167,206.167 221.833,206.167 225.5,207.5C 228.717,215.328 232.217,222.994 236,230.5C 239.264,222.874 242.431,215.207 245.5,207.5C 249.167,206.167 252.833,206.167 256.5,207.5C 255.009,208.244 253.509,208.91 252,209.5C 251.333,218.833 251.333,228.167 252,237.5C 253.509,238.09 255.009,238.756 256.5,239.5C 251.5,240.833 246.5,240.833 241.5,239.5C 242.628,238.738 243.795,238.071 245,237.5C 245.667,229.5 245.667,221.5 245,213.5C 241.457,222.633 237.623,231.633 233.5,240.5C 229.287,232.073 225.62,223.406 222.5,214.5 Z"/></g>
<g><path style="opacity:1" fill="#8dad3f" d="M 264.5,208.5 C 267.833,207.167 271.167,207.167 274.5,208.5C 273.883,208.611 273.383,208.944 273,209.5C 272.501,214.155 272.334,218.821 272.5,223.5C 282.353,225.149 286.186,221.149 284,211.5C 282.961,210.29 281.794,209.29 280.5,208.5C 281.568,207.566 282.901,207.232 284.5,207.5C 292.542,211.246 293.542,216.413 287.5,223C 282.705,225.033 277.705,225.866 272.5,225.5C 272.334,229.514 272.501,233.514 273,237.5C 274.825,238.103 276.659,238.77 278.5,239.5C 272.833,240.833 267.167,240.833 261.5,239.5C 262.991,238.756 264.491,238.09 266,237.5C 266.667,228.167 266.667,218.833 266,209.5C 265.617,208.944 265.117,208.611 264.5,208.5 Z"/></g>
<g><path style="opacity:1" fill="#fcfcf9" d="M 274.5,208.5 C 276.5,208.5 278.5,208.5 280.5,208.5C 281.794,209.29 282.961,210.29 284,211.5C 286.186,221.149 282.353,225.149 272.5,223.5C 272.334,218.821 272.501,214.155 273,209.5C 273.383,208.944 273.883,208.611 274.5,208.5 Z"/></g>
<g><path style="opacity:1" fill="#fafbf7" d="M 343.5,222.5 C 341.833,222.5 340.167,222.5 338.5,222.5C 338.5,218.167 338.5,213.833 338.5,209.5C 338.611,208.883 338.944,208.383 339.5,208C 348.567,207.062 351.734,210.895 349,219.5C 347.736,221.607 345.903,222.607 343.5,222.5 Z"/></g>
<g><path style="opacity:1" fill="#95a237" d="M 89.5,208.5 C 93.4041,211.948 97.7374,214.614 102.5,216.5C 104.103,216.312 105.437,216.812 106.5,218C 106.167,218.333 105.833,218.667 105.5,219C 107.747,220.995 108.747,223.495 108.5,226.5C 100.86,233.806 93.1931,241.139 85.5,248.5C 82.4944,244.8 80.8277,240.467 80.5,235.5C 81.8333,234.833 82.8333,233.833 83.5,232.5C 86.7915,230.542 89.7915,228.209 92.5,225.5C 89.1456,221.479 85.479,217.812 81.5,214.5C 81.3893,213.883 81.056,213.383 80.5,213C 83.2857,210.94 86.2857,209.44 89.5,208.5 Z"/></g>
<g><path style="opacity:1" fill="#cedcab" d="M 372.5,208.5 C 373.919,207.549 375.585,207.216 377.5,207.5C 377.827,217.348 377.494,227.014 376.5,236.5C 376.5,227.167 376.5,217.833 376.5,208.5C 375.167,208.5 373.833,208.5 372.5,208.5 Z"/></g>
<g><path style="opacity:1" fill="#9c9da1" d="M 47.5,208.5 C 49.1667,209.833 50.8333,211.167 52.5,212.5C 57.8612,218.193 63.1946,223.86 68.5,229.5C 69.4968,233.479 70.4968,237.479 71.5,241.5C 70.8333,242.833 69.8333,243.833 68.5,244.5C 63.4054,236.681 57.5721,229.348 51,222.5C 49.5157,217.912 48.349,213.245 47.5,208.5 Z"/></g>
<g><path style="opacity:1" fill="#acb660" d="M 100.5,197.5 C 103.81,199.482 106.81,201.815 109.5,204.5C 110.045,206.593 110.878,208.593 112,210.5C 114.399,212.397 116.232,214.731 117.5,217.5C 116.167,219.5 114.5,221.167 112.5,222.5C 109.383,214.942 105.217,207.942 100,201.5C 99.4209,200.072 99.5876,198.738 100.5,197.5 Z"/></g>
<g><path style="opacity:1" fill="#dbe5c3" d="M 338.5,209.5 C 338.5,213.833 338.5,218.167 338.5,222.5C 340.167,222.5 341.833,222.5 343.5,222.5C 341.735,223.461 339.735,223.795 337.5,223.5C 337.181,218.637 337.514,213.97 338.5,209.5 Z"/></g>
<g><path style="opacity:1" fill="#f8faf4" d="M 304.5,213.5 C 306.922,217.076 308.589,221.076 309.5,225.5C 306.428,225.817 303.428,225.484 300.5,224.5C 302.238,220.951 303.571,217.284 304.5,213.5 Z"/></g>
<g><path style="opacity:1" fill="#2e2e17" d="M 81.5,214.5 C 85.479,217.812 89.1456,221.479 92.5,225.5C 89.7915,228.209 86.7915,230.542 83.5,232.5C 82.5416,232.047 81.7083,231.381 81,230.5C 80.5017,227.183 80.335,223.85 80.5,220.5C 80.2053,218.265 80.5386,216.265 81.5,214.5 Z"/></g>
<g><path style="opacity:1" fill="#f8faf4" d="M 195.5,224.5 C 192.833,225.833 190.167,225.833 187.5,224.5C 190.199,211.202 192.866,211.202 195.5,224.5 Z"/></g>
<g><path style="opacity:1" fill="#bbcf8e" d="M 222.5,214.5 C 221.51,220.645 221.177,226.978 221.5,233.5C 220.182,226.989 220.182,220.322 221.5,213.5C 222.107,213.624 222.44,213.957 222.5,214.5 Z"/></g>
<g><path style="opacity:1" fill="#5a5c2a" d="M 121.5,217.5 C 120.478,221.777 119.645,226.111 119,230.5C 106.302,245.36 93.4682,260.026 80.5,274.5C 80.5,267.5 80.5,260.5 80.5,253.5C 82.5,252.167 84.1667,250.5 85.5,248.5C 93.1931,241.139 100.86,233.806 108.5,226.5C 110.167,225.5 111.5,224.167 112.5,222.5C 114.5,221.167 116.167,219.5 117.5,217.5C 118.794,216.71 119.961,215.71 121,214.5C 121.483,215.448 121.649,216.448 121.5,217.5 Z"/></g>
<g><path style="opacity:1" fill="#a1ac4d" d="M 92.5,191.5 C 95.4735,193.147 98.1401,195.147 100.5,197.5C 99.5876,198.738 99.4209,200.072 100,201.5C 105.217,207.942 109.383,214.942 112.5,222.5C 111.5,224.167 110.167,225.5 108.5,226.5C 108.747,223.495 107.747,220.995 105.5,219C 105.833,218.667 106.167,218.333 106.5,218C 105.437,216.812 104.103,216.312 102.5,216.5C 103.141,215.518 103.807,214.518 104.5,213.5C 103.143,211.814 101.81,210.148 100.5,208.5C 100.611,207.883 100.944,207.383 101.5,207C 96.165,203.17 93.165,198.004 92.5,191.5 Z"/></g>
<g><path style="opacity:1" fill="#c4c5c5" d="M 79.5,220.5 C 79.8333,220.5 80.1667,220.5 80.5,220.5C 80.335,223.85 80.5017,227.183 81,230.5C 81.7083,231.381 82.5416,232.047 83.5,232.5C 82.8333,233.833 81.8333,234.833 80.5,235.5C 78.8089,236.864 77.1423,238.197 75.5,239.5C 74.1667,240.167 72.8333,240.833 71.5,241.5C 70.4968,237.479 69.4968,233.479 68.5,229.5C 71.7777,228.191 74.7777,226.358 77.5,224C 78.8228,223.184 79.4894,222.017 79.5,220.5 Z"/></g>
<g><path style="opacity:1" fill="#c0d297" d="M 187.5,224.5 C 190.167,225.833 192.833,225.833 195.5,224.5C 196.043,224.56 196.376,224.893 196.5,225.5C 193.167,226.833 189.833,226.833 186.5,225.5C 186.624,224.893 186.957,224.56 187.5,224.5 Z"/></g>
<g><path style="opacity:1" fill="#8aac3c" d="M 171.5,239.5 C 167.958,239.813 164.625,239.479 161.5,238.5C 166.385,237.723 170.385,235.39 173.5,231.5C 174.067,234.398 173.401,237.065 171.5,239.5 Z"/></g>
<g><path style="opacity:1" fill="#a7c06c" d="M 145.5,238.5 C 149.167,239.833 152.833,239.833 156.5,238.5C 158.167,238.5 159.833,238.5 161.5,238.5C 164.625,239.479 167.958,239.813 171.5,239.5C 161.992,240.823 152.325,240.823 142.5,239.5C 143.325,238.614 144.325,238.281 145.5,238.5 Z"/></g>
<g><path style="opacity:1" fill="#cfdcad" d="M 290.5,238.5 C 293.962,239.482 297.629,239.815 301.5,239.5C 297.649,240.809 293.649,240.809 289.5,239.5C 289.624,238.893 289.957,238.56 290.5,238.5 Z"/></g>
<g><path style="opacity:1" fill="#2b2b16" d="M 78.5,252.5 C 79.1667,252.833 79.8333,253.167 80.5,253.5C 80.5,260.5 80.5,267.5 80.5,274.5C 77.5361,272.038 74.7028,269.371 72,266.5C 70.8926,260.132 69.7259,253.798 68.5,247.5C 68.4346,247.062 68.6012,246.728 69,246.5C 72.3176,248.329 75.4843,250.329 78.5,252.5 Z"/></g>
<g><path style="opacity:1" fill="#656e26" d="M 75.5,239.5 C 76.3376,243.375 77.671,247.042 79.5,250.5C 79.1373,251.183 78.8039,251.85 78.5,252.5C 75.4843,250.329 72.3176,248.329 69,246.5C 68.6012,246.728 68.4346,247.062 68.5,247.5C 67.1667,246.5 67.1667,245.5 68.5,244.5C 69.8333,243.833 70.8333,242.833 71.5,241.5C 72.8333,240.833 74.1667,240.167 75.5,239.5 Z"/></g>
<g><path style="opacity:1" fill="#76802b" d="M 80.5,235.5 C 80.8277,240.467 82.4944,244.8 85.5,248.5C 84.1667,250.5 82.5,252.167 80.5,253.5C 79.8333,253.167 79.1667,252.833 78.5,252.5C 78.8039,251.85 79.1373,251.183 79.5,250.5C 77.671,247.042 76.3376,243.375 75.5,239.5C 77.1423,238.197 78.8089,236.864 80.5,235.5 Z"/></g>
</svg>
